<?xml version="1.0" encoding="utf-8"?>
<!-- Generator: Adobe Illustrator 24.0.3, SVG Export Plug-In . SVG Version: 6.00 Build 0)  -->
<svg version="1.1" id="Layer_1" xmlns="http://www.w3.org/2000/svg" xmlns:xlink="http://www.w3.org/1999/xlink" x="0px" y="0px"
	 viewBox="0 0 500 500" style="enable-background:new 0 0 500 500;" xml:space="preserve">
<style type="text/css">
	.st0{fill:#EC1E24;}
</style>
<g>
	<path d="M54.8,213.2l57.1,0.6c1.4,14,11.3,23.6,37,23.9c22.3,0.2,33.1-6.7,33.2-19.2c0.1-11.8-10.6-17.4-32.1-17.6l-20-0.2l0.4-36
		l19,0.2c21.3,0.2,31.8-5.7,32-16.9c0.1-10-9.3-16.6-29.4-16.8c-19.5-0.2-31.1,7.7-34.3,21.2l-56.1-0.6c3.4-36,35.2-59.9,93.7-59.3
		c53.8,0.6,86.4,18.9,86.1,49.7c-0.2,20-13.9,33.1-37.2,38.7c27,4.5,42.6,19,42.4,40c-0.4,34.5-34.1,57-95.2,56.3
		C85.7,276.4,56.7,251.5,54.8,213.2z"/>
	<path d="M250,191.5l0.1-12c0.6-54.8,42.2-85.7,109.2-85c67.1,0.7,108,32.9,107.5,86l-0.1,11.8c-0.6,54-38.9,87.7-110,87
		C285.7,278.4,249.5,243.8,250,191.5z M403.2,193.1l0.1-12.3c0.3-29-14.1-44.7-44.1-45c-30.3-0.3-44.7,14.8-45,44.1l-0.1,12
		c-0.3,29.3,14.1,44.4,44.8,44.8C389.9,237,402.9,221.6,403.2,193.1z"/>
</g>
<g>
	<path d="M207.3,43.5l-2,0.6c-1.7-6.2-4.8-9.7-10-9.7h-6.9c-0.4,4.1-0.6,10.5-0.4,17.3l4.6-0.3c3.1,0,4.4-2.3,5.1-5.7h1.7v14.3h-1.7
		c-0.7-3.5-2-5.8-5.1-6l-4.6-0.1c0,5.1,0.1,9.4,0.4,12.1c0.3,3.8,1.3,5.5,4,5.9l2.5,0.3v1.6h-22.4v-1.6l1.9-0.3
		c2.6-0.4,3.7-2.1,4-5.9c0.5-6.2,0.6-19.3,0-26.6c-0.3-3.9-1.4-5.5-4-5.8l-1.9-0.3v-1.7h34.9L207.3,43.5z M233,58.7
		c0,8.8-5.6,16-15.6,16c-9.8,0-14.8-6.8-14.8-15.7c0-8.8,5.6-16.1,15.6-16.1C228,42.9,233,49.8,233,58.7z M212,58.9c0,7.7,2,14,6,14
		c4.3,0,5.6-6.2,5.6-14c0-7.8-1.9-13.9-6-13.9C213.3,44.9,212,50.9,212,58.9z M255.4,52.1c-4-2.8-8.4-1.6-9.2,0
		c-0.4,4.9-0.3,12.3,0.1,16.1c0.2,2.5,0.9,3.6,2.7,3.8l2.5,0.3v1.6h-18.5v-1.6l1.4-0.3c1.8-0.2,2.4-1.3,2.5-3.8
		c0.4-4.1,0.6-12.7,0-17.4c-0.1-2.7-0.7-3.7-2.5-4l-1.4-0.2v-1.1l13.2-2.6l-0.2,7.1c3.1-7.3,9.2-8.2,12.6-6.2L255.4,52.1z
		 M288.7,57.7c0,10.3-6.3,17-16.9,17c-3.8,0-7.7-0.6-11.1-1.4c0.3-4.2,0.3-29.9,0-34.7c-0.3-2.5-1-3.7-2.9-4l-1.2-0.1v-1.1l13.1-2.5
		c-0.1,2.1-0.2,7.7-0.2,14.4c2.3-1.2,4.4-1.9,7.3-1.9C283.6,43.3,288.7,49.3,288.7,57.7z M279.5,58.2c-0.2-6.6-2.5-11.7-6.9-11.7
		c-1.1,0-1.9,0.2-3.1,0.6c0,10.5,0.1,22.3,0.4,25.1c0.4,0.2,1.5,0.3,2.2,0.3C276.4,72.6,279.5,66.3,279.5,58.2z M306.2,42.9
		c8.2,0,12.2,6.3,12.3,14.6h-18.5c-0.1,7.3,3.7,12.8,10.6,12.8c3,0,4.8-0.9,6.6-2.3l0.9,1c-2,2.9-6.3,5.7-11.9,5.7
		c-9.1,0-15.3-6.5-15.3-15.6C290.8,50.9,296,42.9,306.2,42.9z M309.3,55.1c0.2-4.2-0.6-10.1-3.9-10.1c-3.3,0-5.2,5.6-5.3,10.4
		L309.3,55.1z M341.7,52.3l-1.5,0.4c-1.5-5.3-4-7.6-7.5-7.6c-2.5,0-4.2,1.7-4.2,4.4c0,2.6,2,4,7.6,6.3c5.1,2,7.2,4.3,7.2,8.5
		c0,6.4-4.8,10.3-12.6,10.3c-3.8,0-8.1-0.9-10.5-1.9l-0.3-8.8l1.5-0.3c2.2,6,5.1,8.3,8.8,8.3c3.2,0,4.9-2.3,4.9-4.7
		s-1.3-3.8-6.3-5.7c-4.8-1.6-8.1-3.8-8.1-9.1c0-5.2,4.4-9.6,11.9-9.6c3.5,0,6.8,0.6,8.9,1.6L341.7,52.3z"/>
</g>
<g>
	<path d="M54.9,403.5l57.1,0.6c1.4,14,11.3,23.6,37,23.9c22.3,0.2,33.1-6.7,33.2-19.2c0.1-11.8-10.6-17.4-32.1-17.6l-20-0.2l0.4-36
		l19,0.2c21.3,0.2,31.8-5.7,32-16.9c0.1-10-9.3-16.6-29.4-16.8c-19.5-0.2-31.1,7.7-34.3,21.2L61.8,342c3.4-36,35.2-59.9,93.7-59.3
		c53.8,0.6,86.4,18.9,86.1,49.7c-0.2,20-13.9,33.1-37.2,38.7c27,4.5,42.6,19,42.4,40c-0.4,34.5-34.1,57-95.2,56.3
		C85.8,466.6,56.8,441.8,54.9,403.5z"/>
	<path d="M250.1,381.7l0.1-12c0.6-54.8,42.2-85.7,109.2-85c67.1,0.7,108,32.9,107.5,86l-0.1,11.8c-0.6,54-38.9,87.7-110,87
		C285.7,468.7,249.6,434,250.1,381.7z M403.2,383.3l0.1-12.3c0.3-29-14.1-44.7-44.1-45c-30.3-0.3-44.7,14.8-45,44.1l-0.1,12
		c-0.3,29.3,14.1,44.4,44.8,44.8C390,427.2,402.9,411.9,403.2,383.3z"/>
</g>
<g>
	<path class="st0" d="M35.3,354.7v29.1c0,5.3-2.7,7.7-7.4,7.7c-4.7,0-7.4-2.3-7.4-7.7v-29h5.3v29c0,2.4,0.5,3.3,2,3.3s2-1,2-3.4
		v-28.9H35.3z"/>
	<path class="st0" d="M40.1,354.7h5.8l3.8,17.5l0.7,3.7v-21.2h4.7V391H50l-4.5-20.5l-0.7-3.7V391h-4.7V354.7z"/>
	<path class="st0" d="M66.3,354.7c5.1,0,8.6,1.8,8.6,8.6v19c0,6.8-3.5,8.7-8.6,8.7h-6.4v-36.3H66.3z M65.3,358.9v27.9h1
		c2.5,0,3.1-1,3.1-4.7v-18.7c0-3.4-0.8-4.5-3.1-4.5H65.3z"/>
	<path class="st0" d="M79.8,354.7h11.7v4.2h-6.3v10.6h5v4.2h-5v13.1h6.6v4.2h-12V354.7z"/>
	<path class="st0" d="M96.2,354.7h7.1c5.7,0,7.5,2.3,7.5,7.1v6.1c0,3.3-0.8,4.9-2.9,5.8l3.7,17.3h-5.6l-3.1-16.6h-1.1V391h-5.4
		V354.7z M103.3,370.7c1.9,0,2.2-0.7,2.2-3.1v-5.8c0-2.3-0.5-3-2.2-3h-1.7v11.9H103.3z"/>
</g>
</svg>
