<svg width="122" height="122" viewBox="0 0 122 122" fill="none" xmlns="http://www.w3.org/2000/svg">
<path d="M119.49 24.9512C115.27 26.8212 110.737 28.0846 105.971 28.6557C110.888 25.7133 114.567 21.0823 116.321 15.6267C111.701 18.3709 106.645 20.3026 101.372 21.3376C97.8259 17.5516 93.1292 15.0421 88.0109 14.1988C82.8926 13.3556 77.6391 14.2257 73.066 16.6741C68.4929 19.1226 64.8561 23.0123 62.7201 27.7395C60.5842 32.4666 60.0688 37.7667 61.2537 42.8169C51.8923 42.3468 42.7342 39.9136 34.374 35.6752C26.0138 31.4367 18.6382 25.4877 12.7259 18.2143C10.7043 21.7015 9.54189 25.7447 9.54189 30.0506C9.53963 33.927 10.4942 37.7439 12.3209 41.1629C14.1477 44.5818 16.79 47.497 20.0136 49.6498C16.2751 49.5308 12.6191 48.5207 9.34984 46.7033V47.0066C9.34946 52.4433 11.2301 57.7127 14.6726 61.9207C18.115 66.1287 22.9074 69.0161 28.2364 70.0929C24.7683 71.0315 21.1323 71.1698 17.6029 70.4973C19.1064 75.1752 22.0352 79.266 25.9791 82.1967C29.9231 85.1275 34.6848 86.7516 39.5976 86.8417C31.2578 93.3886 20.9582 96.9399 10.3556 96.9243C8.47743 96.9248 6.60088 96.8151 4.7356 96.5958C15.4978 103.515 28.0258 107.188 40.8207 107.174C84.1329 107.174 107.811 71.3008 107.811 40.1888C107.811 39.178 107.785 38.1571 107.74 37.1463C112.345 33.8157 116.321 29.6913 119.48 24.9664L119.49 24.9512V24.9512Z" fill="black"/>
</svg>
