<svg width="122" height="122" viewBox="0 0 122 122" fill="none" xmlns="http://www.w3.org/2000/svg">
<path fill-rule="evenodd" clip-rule="evenodd" d="M5.05396 14.3431C5.05396 11.8794 6.03263 9.51672 7.77468 7.77467C9.51673 6.03262 11.8795 5.05394 14.3431 5.05394H106.941C108.162 5.05195 109.371 5.29079 110.5 5.75678C111.628 6.22277 112.654 6.90677 113.518 7.76961C114.381 8.63245 115.067 9.65719 115.534 10.7852C116.001 11.9131 116.241 13.1222 116.24 14.3431V106.941C116.242 108.162 116.002 109.372 115.536 110.5C115.069 111.629 114.385 112.654 113.522 113.518C112.658 114.382 111.633 115.067 110.505 115.534C109.377 116.001 108.167 116.241 106.946 116.24H14.3431C13.1228 116.24 11.9145 116 10.7871 115.533C9.65978 115.066 8.63553 114.381 7.77289 113.518C6.91025 112.655 6.22612 111.63 5.7596 110.503C5.29307 109.375 5.05329 108.167 5.05396 106.946V14.3431ZM49.0636 47.4463H64.1193V55.007C66.2925 50.6606 71.8518 46.7489 80.2059 46.7489C96.2219 46.7489 100.017 55.4063 100.017 71.2908V100.715H83.8094V74.9094C83.8094 65.8629 81.6362 60.7584 76.1173 60.7584C68.4606 60.7584 65.2766 66.2621 65.2766 74.9094V100.715H49.0636V47.4463ZM21.267 100.022H37.48V46.7489H21.267V100.017V100.022ZM39.7998 29.3735C39.8303 30.7616 39.5833 32.142 39.0732 33.4334C38.5631 34.7248 37.8002 35.9013 36.8292 36.8939C35.8582 37.8865 34.6988 38.6751 33.4189 39.2135C32.1391 39.7519 30.7645 40.0293 29.376 40.0293C27.9875 40.0293 26.613 39.7519 25.3331 39.2135C24.0532 38.6751 22.8938 37.8865 21.9228 36.8939C20.9519 35.9013 20.1889 34.7248 19.6788 33.4334C19.1687 32.142 18.9217 30.7616 18.9523 29.3735C19.0123 26.6487 20.1368 24.0557 22.0851 22.1498C24.0334 20.244 26.6505 19.1767 29.376 19.1767C32.1015 19.1767 34.7186 20.244 36.6669 22.1498C38.6152 24.0557 39.7397 26.6487 39.7998 29.3735V29.3735Z" fill="black"/>
</svg>
