<svg width="122" height="122" viewBox="0 0 122 122" fill="none" xmlns="http://www.w3.org/2000/svg">
<g clip-path="url(#clip0_102:5)">
<path d="M118.767 32.886C118.081 30.436 116.743 28.2179 114.896 26.4675C112.997 24.6633 110.67 23.3727 108.134 22.7175C98.6427 20.2158 60.6169 20.2158 60.6169 20.2158C44.7644 20.0354 28.9158 20.8287 13.1605 22.5911C10.6244 23.2947 8.30147 24.6142 6.39835 26.4321C4.52839 28.2313 3.17394 30.45 2.46639 32.881C0.766714 42.0374 -0.0591039 51.3346 6.74446e-05 60.6473C-0.0605797 69.9516 0.763211 79.2457 2.46639 88.4136C3.15878 90.8344 4.50818 93.043 6.38318 94.827C8.25819 96.6111 10.5931 97.8998 13.1605 98.5821C22.7781 101.079 60.6169 101.079 60.6169 101.079C76.4896 101.259 92.3585 100.466 108.134 98.7034C110.67 98.0482 112.997 96.7576 114.896 94.9534C116.766 93.1693 118.095 90.9506 118.762 88.5349C120.506 79.382 121.354 70.0809 121.294 60.7635C121.426 51.4067 120.579 42.0617 118.767 32.881V32.886ZM48.5279 77.9519V43.3476L80.1655 60.6523L48.5279 77.9519Z" fill="white"/>
</g>
<defs>
<clipPath id="clip0_102:5">
<rect width="121.294" height="121.294" fill="white"/>
</clipPath>
</defs>
</svg>
