<svg width="122" height="122" viewBox="0 0 122 122" fill="none" xmlns="http://www.w3.org/2000/svg">
<path fill-rule="evenodd" clip-rule="evenodd" d="M37.7276 5.38748C43.6559 5.11457 45.5461 5.05392 60.6472 5.05392C75.7484 5.05392 77.6385 5.11963 83.5617 5.38748C89.485 5.65534 93.5281 6.60043 97.0658 7.97004C100.77 9.36998 104.131 11.5583 106.911 14.3885C109.741 17.1631 111.924 20.519 113.319 24.2285C114.694 27.7663 115.634 31.8094 115.907 37.7225C116.18 43.6609 116.24 45.5511 116.24 60.6472C116.24 75.7483 116.175 77.6385 115.907 83.5668C115.639 89.4799 114.694 93.523 113.319 97.0608C111.924 100.771 109.737 104.132 106.911 106.911C104.131 109.741 100.77 111.924 97.0658 113.319C93.5281 114.694 89.4849 115.634 83.5718 115.907C77.6385 116.18 75.7484 116.24 60.6472 116.24C45.5461 116.24 43.6559 116.175 37.7276 115.907C31.8145 115.639 27.7714 114.694 24.2336 113.319C20.5236 111.924 17.1623 109.737 14.3835 106.911C11.5552 104.135 9.36655 100.775 7.97007 97.0658C6.60046 93.5281 5.66043 89.4849 5.38751 83.5718C5.1146 77.6335 5.05396 75.7433 5.05396 60.6472C5.05396 45.546 5.11966 43.6559 5.38751 37.7327C5.65537 31.8094 6.60046 27.7663 7.97007 24.2285C9.36861 20.5194 11.559 17.1597 14.3886 14.3835C17.1634 11.5558 20.5214 9.36717 24.2286 7.97004C27.7663 6.60043 31.8095 5.6604 37.7226 5.38748H37.7276ZM83.1119 15.3943C77.2494 15.1264 75.4906 15.0708 60.6472 15.0708C45.8038 15.0708 44.045 15.1264 38.1825 15.3943C32.7596 15.6419 29.8182 16.5466 27.8573 17.3097C25.2646 18.3205 23.4098 19.5183 21.4641 21.464C19.6196 23.2585 18.2001 25.4429 17.3097 27.8573C16.5466 29.8182 15.6419 32.7596 15.3943 38.1825C15.1264 44.045 15.0709 45.8038 15.0709 60.6472C15.0709 75.4906 15.1264 77.2494 15.3943 83.1119C15.6419 88.5348 16.5466 91.4762 17.3097 93.4371C18.1992 95.8478 19.6194 98.0362 21.4641 99.8303C23.2582 101.675 25.4466 103.095 27.8573 103.985C29.8182 104.748 32.7596 105.652 38.1825 105.9C44.045 106.168 45.7988 106.224 60.6472 106.224C75.4957 106.224 77.2494 106.168 83.1119 105.9C88.5348 105.652 91.4762 104.748 93.4371 103.985C96.0298 102.974 97.8846 101.776 99.8304 99.8303C101.675 98.0362 103.095 95.8478 103.985 93.4371C104.748 91.4762 105.652 88.5348 105.9 83.1119C106.168 77.2494 106.224 75.4906 106.224 60.6472C106.224 45.8038 106.168 44.045 105.9 38.1825C105.652 32.7596 104.748 29.8182 103.985 27.8573C102.974 25.2646 101.776 23.4098 99.8304 21.464C98.0358 19.6197 95.8514 18.2003 93.4371 17.3097C91.4762 16.5466 88.5348 15.6419 83.1119 15.3943ZM53.5464 77.7851C57.5121 79.4358 61.9278 79.6586 66.0394 78.4154C70.151 77.1722 73.7035 74.54 76.0901 70.9686C78.4766 67.3971 79.5492 63.1078 79.1246 58.8334C78.7001 54.5589 76.8047 50.5645 73.7622 47.5322C71.8227 45.5939 69.4775 44.1098 66.8956 43.1866C64.3136 42.2634 61.5591 41.9242 58.8303 42.1933C56.1015 42.4625 53.4663 43.3333 51.1145 44.7431C48.7627 46.1529 46.7527 48.0667 45.2292 50.3465C43.7057 52.6264 42.7067 55.2157 42.304 57.928C41.9014 60.6403 42.1051 63.4081 42.9005 66.0322C43.696 68.6564 45.0633 71.0715 46.9042 73.1037C48.745 75.136 51.0135 76.7348 53.5464 77.7851ZM40.4416 40.4416C43.095 37.7881 46.2451 35.6833 49.712 34.2473C53.1789 32.8112 56.8947 32.0721 60.6472 32.0721C64.3997 32.0721 68.1155 32.8112 71.5824 34.2473C75.0493 35.6833 78.1994 37.7881 80.8528 40.4416C83.5063 43.095 85.6111 46.2451 87.0471 49.712C88.4832 53.1789 89.2223 56.8947 89.2223 60.6472C89.2223 64.3997 88.4832 68.1155 87.0471 71.5824C85.6111 75.0493 83.5063 78.1994 80.8528 80.8528C75.494 86.2117 68.2258 89.2223 60.6472 89.2223C53.0686 89.2223 45.8005 86.2117 40.4416 80.8528C35.0827 75.4939 32.0721 68.2258 32.0721 60.6472C32.0721 53.0686 35.0827 45.8004 40.4416 40.4416ZM95.5598 36.3277C96.2173 35.7074 96.7437 34.9615 97.1078 34.1341C97.4719 33.3068 97.6663 32.4148 97.6795 31.5109C97.6927 30.6071 97.5244 29.7098 97.1845 28.8722C96.8447 28.0345 96.3403 27.2736 95.7011 26.6344C95.0619 25.9952 94.301 25.4908 93.4634 25.151C92.6257 24.8112 91.7284 24.6428 90.8246 24.656C89.9208 24.6692 89.0288 24.8636 88.2014 25.2277C87.374 25.5918 86.6281 26.1182 86.0078 26.7757C84.8015 28.0545 84.1411 29.7531 84.1667 31.5109C84.1923 33.2687 84.902 34.9473 86.1451 36.1904C87.3882 37.4335 89.0668 38.1432 90.8246 38.1688C92.5824 38.1944 94.281 37.534 95.5598 36.3277Z" fill="white"/>
</svg>
