<svg data-v-423bf9ae="" xmlns="http://www.w3.org/2000/svg" viewBox="0 0 598.1021023265373 163" class="iconAbove"><!----><defs data-v-423bf9ae=""><linearGradient data-v-423bf9ae="" gradientTransform="rotate(25)" id="bbaa8eab-e6db-448c-a5f6-92027883e178" x1="0%" y1="0%" x2="100%" y2="0%"><stop data-v-423bf9ae="" offset="0%" style="stop-color: rgb(90, 90, 45); stop-opacity: 1;"></stop><stop data-v-423bf9ae="" offset="100%" style="stop-color: rgb(13, 227, 13); stop-opacity: 1;"></stop></linearGradient></defs><!----><g data-v-423bf9ae="" id="2b52c6e8-83dd-4eab-825c-62da37bbd50b" fill="#ffffff" transform="matrix(6.122449456230433,0,0,6.122449456230433,0.00000474493447200075,91.18366999499045)"><path d="M3.64 1.93L3.64 1.93L3.66 1.93L3.66 1.93Q5.85 1.93 6.34 3.36L6.34 3.36L6.34 3.36Q6.57 3.89 6.57 4.85L6.57 4.85L4.98 5.07L4.96 5.03L4.96 5.00L4.96 5.00Q4.96 3.84 4.18 3.62L4.18 3.62L4.18 3.62Q3.94 3.55 3.60 3.53L3.60 3.53L3.60 3.53Q2.75 3.53 2.50 4.44L2.50 4.44L2.50 4.44Q2.36 5.05 2.36 5.88L2.36 5.88L2.36 6.64L2.36 6.64Q2.36 7.98 2.39 8.65L2.39 8.65L2.80 8.65L2.80 10.02L4.74 10.02L4.74 7.68L3.51 7.68L3.51 6.43L7.22 6.43L7.22 6.71L6.73 6.71L6.73 8.16L5.74 8.16L5.74 8.61L6.23 8.61L6.23 11.39L0.93 11.39L0.93 9.91L0.33 9.91L0.33 9.78L0.59 9.78L0.59 9.63L0.93 9.63L0.93 9.08L0 9.08L0 7.90L0.44 7.90L0.44 7.90Q0.42 7.38 0.42 7.29L0.42 7.29L0.42 7.29Q0.42 4.18 0.77 3.53L0.77 3.53L0.77 3.53Q0.86 3.13 1.33 2.64L1.33 2.64L1.33 2.64Q2.02 1.93 3.64 1.93ZM2.54 8.52L2.54 8.09L2.63 8.09L2.63 8.52L2.54 8.52ZM6.52 8.67L6.52 8.67L6.52 8.67Q6.62 8.71 6.63 8.76L6.63 8.76L6.63 8.82L6.63 8.82Q6.63 8.85 6.57 8.89L6.57 8.89L6.57 8.89Q6.58 8.91 6.58 8.93L6.58 8.93L6.62 8.93L6.62 8.90L6.70 8.90L6.70 8.92L6.70 8.92Q6.70 9.00 6.67 9.00L6.67 9.00L6.67 9.00Q6.67 9.02 6.75 9.11L6.75 9.11L6.65 9.11L6.60 9.08L6.60 9.08Q6.54 9.13 6.47 9.13L6.47 9.13L6.47 9.13Q6.36 9.13 6.34 8.98L6.34 8.98L6.34 8.98Q6.36 8.91 6.42 8.89L6.42 8.89L6.42 8.89Q6.41 8.80 6.41 8.76L6.41 8.76L6.41 8.76Q6.41 8.71 6.52 8.67ZM6.49 8.79L6.49 8.79L6.49 8.79Q6.50 8.82 6.50 8.84L6.50 8.84L6.50 8.84Q6.53 8.84 6.55 8.79L6.55 8.79L6.55 8.79Q6.55 8.76 6.52 8.76L6.52 8.76L6.52 8.76Q6.49 8.76 6.49 8.79ZM6.55 9.00L6.47 8.93L6.44 8.98L6.44 9.00L6.44 9.00Q6.44 9.02 6.49 9.05L6.49 9.05L6.49 9.05Q6.55 9.02 6.55 9.00L6.55 9.00ZM6.52 9.37L6.52 9.37L6.52 9.37Q6.62 9.41 6.63 9.45L6.63 9.45L6.63 9.52L6.63 9.52Q6.63 9.54 6.57 9.58L6.57 9.58L6.57 9.58Q6.58 9.62 6.58 9.63L6.58 9.63L6.62 9.63L6.62 9.60L6.70 9.60L6.70 9.62L6.70 9.62Q6.70 9.70 6.67 9.70L6.67 9.70L6.67 9.70Q6.67 9.71 6.75 9.81L6.75 9.81L6.65 9.81L6.60 9.78L6.60 9.78Q6.54 9.83 6.47 9.83L6.47 9.83L6.47 9.83Q6.36 9.83 6.34 9.68L6.34 9.68L6.34 9.68Q6.36 9.62 6.42 9.58L6.42 9.58L6.42 9.58Q6.41 9.50 6.41 9.45L6.41 9.45L6.41 9.45Q6.41 9.41 6.52 9.37ZM6.49 9.49L6.49 9.49L6.49 9.49Q6.50 9.52 6.50 9.54L6.50 9.54L6.50 9.54Q6.53 9.54 6.55 9.49L6.55 9.49L6.55 9.49Q6.55 9.45 6.52 9.45L6.52 9.45L6.52 9.45Q6.49 9.46 6.49 9.49ZM3.10 9.49L3.10 9.49L3.10 9.49Q3.32 9.52 3.32 9.68L3.32 9.68L3.32 9.73L3.32 9.73Q3.30 9.94 3.10 9.94L3.10 9.94L3.09 9.94L3.09 9.94Q2.89 9.94 2.89 9.70L2.89 9.70L2.89 9.70Q2.95 9.49 3.10 9.49ZM3.48 9.57L3.48 9.50L3.83 9.50L3.83 9.60L3.73 9.60L3.73 9.91L3.73 9.91Q3.73 9.94 3.69 9.94L3.69 9.94L3.64 9.94L3.64 9.94Q3.61 9.94 3.61 9.91L3.61 9.91L3.61 9.60L3.51 9.60L3.51 9.60Q3.48 9.60 3.48 9.57L3.48 9.57ZM3.01 9.70L3.01 9.70L3.01 9.78L3.01 9.78Q3.01 9.80 3.08 9.84L3.08 9.84L3.15 9.84L3.15 9.84Q3.21 9.84 3.22 9.71L3.22 9.71L3.22 9.71Q3.22 9.63 3.14 9.58L3.14 9.58L3.12 9.58L3.12 9.58Q3.01 9.58 3.01 9.70ZM6.47 9.63L6.47 9.63L6.44 9.68L6.44 9.70L6.44 9.70Q6.44 9.72 6.49 9.75L6.49 9.75L6.49 9.75Q6.55 9.72 6.55 9.70L6.55 9.70L6.55 9.70Q6.48 9.63 6.47 9.63ZM6.50 10.07L6.50 10.07L6.50 10.07Q6.58 10.07 6.63 10.15L6.63 10.15L6.63 10.22L6.63 10.22Q6.63 10.25 6.57 10.28L6.57 10.28L6.57 10.28Q6.58 10.32 6.58 10.33L6.58 10.33L6.62 10.33L6.62 10.30L6.70 10.30L6.70 10.32L6.70 10.32Q6.70 10.40 6.67 10.40L6.67 10.40L6.67 10.40Q6.67 10.41 6.75 10.51L6.75 10.51L6.65 10.51L6.60 10.48L6.60 10.48Q6.54 10.53 6.47 10.53L6.47 10.53L6.47 10.53Q6.36 10.53 6.34 10.38L6.34 10.38L6.34 10.38Q6.36 10.32 6.42 10.28L6.42 10.28L6.41 10.17L6.41 10.15L6.41 10.15Q6.41 10.12 6.50 10.07ZM6.49 10.19L6.49 10.19L6.49 10.19Q6.50 10.22 6.50 10.23L6.50 10.23L6.50 10.23Q6.53 10.23 6.55 10.19L6.55 10.19L6.55 10.19Q6.55 10.15 6.52 10.15L6.52 10.15L6.52 10.15Q6.49 10.16 6.49 10.19ZM6.55 10.40L6.47 10.33L6.44 10.38L6.44 10.40L6.44 10.40Q6.44 10.42 6.49 10.45L6.49 10.45L6.49 10.45Q6.55 10.42 6.55 10.40L6.55 10.40ZM6.50 10.77L6.50 10.77L6.50 10.77Q6.58 10.77 6.63 10.86L6.63 10.86L6.63 10.92L6.63 10.92Q6.63 10.94 6.57 10.99L6.57 10.99L6.57 10.99Q6.58 11.01 6.58 11.03L6.58 11.03L6.62 11.03L6.62 11.00L6.70 11.00L6.70 11.01L6.67 11.13L6.67 11.13Q6.69 11.13 6.75 11.21L6.75 11.21L6.65 11.21L6.60 11.18L6.60 11.18Q6.54 11.22 6.47 11.22L6.47 11.22L6.47 11.22Q6.36 11.22 6.34 11.08L6.34 11.08L6.34 11.08Q6.36 11.01 6.42 10.99L6.42 10.99L6.41 10.87L6.41 10.86L6.41 10.86Q6.41 10.82 6.50 10.77ZM6.49 10.88L6.49 10.88L6.49 10.88Q6.50 10.92 6.50 10.93L6.50 10.93L6.50 10.93Q6.53 10.93 6.55 10.88L6.55 10.88L6.55 10.88Q6.55 10.86 6.52 10.86L6.52 10.86L6.52 10.86Q6.49 10.86 6.49 10.88ZM6.55 11.09L6.47 11.03L6.44 11.08L6.44 11.09L6.44 11.09Q6.44 11.12 6.49 11.14L6.49 11.14L6.49 11.14Q6.55 11.12 6.55 11.09L6.55 11.09ZM2.29 11.73L2.29 11.53L4.31 11.53L4.31 11.73L2.29 11.73ZM7.24 7.49L7.24 1.96L10.59 1.96L10.59 1.96Q12.27 1.96 12.76 3.14L12.76 3.14L12.76 3.14Q12.97 3.75 12.97 4.53L12.97 4.53L12.97 4.94L12.97 4.94Q12.97 6.36 12.35 7.11L12.35 7.11L11.64 7.11L11.64 7.47L12.73 7.47L12.73 9.81L12.09 9.81L12.09 10.17L13.06 10.17L13.06 11.55L11.02 11.55L11.02 9.34L10.23 9.34L10.23 7.92L8.87 7.92L8.87 10.34L9.16 10.34L9.16 11.73L7.27 11.73L7.27 11.73Q7.24 11.73 7.24 11.70L7.24 11.70L7.24 7.77L8.08 7.77L8.08 7.49L7.24 7.49ZM9.97 3.55L9.16 3.55L9.16 6.31L9.63 6.31L9.63 6.31Q10.67 6.31 10.83 6.11L10.83 6.11L10.83 6.11Q11.01 6.00 11.10 5.67L11.10 5.67L11.83 5.67L11.83 5.32L11.17 5.32L11.17 5.35L11.17 5.35Q11.12 5.67 11.09 5.67L11.09 5.67L10.15 5.67L10.15 5.32L11.14 5.32L11.14 5.32Q11.17 5.32 11.17 5.29L11.17 5.29L11.17 5.29Q11.18 4.87 11.18 4.81L11.18 4.81L11.18 4.81Q11.18 3.90 10.87 3.69L10.87 3.69L10.87 3.69Q10.62 3.55 9.97 3.55L9.97 3.55ZM13.95 6.80L13.95 2.00L18.74 2.00L18.74 3.60L18.74 3.60Q18.74 3.63 18.71 3.63L18.71 3.63L15.87 3.63L15.87 5.74L18.42 5.74L18.42 5.76L18.42 5.76Q18.42 5.84 18.39 6.79L18.39 6.79L18.39 6.79Q18.37 6.79 18.37 6.80L18.37 6.80L18.48 6.80L18.48 7.29L16.28 7.29L16.28 9.29L15.68 9.29L15.68 9.49L16.28 9.49L16.28 10.10L18.78 10.10L18.78 10.32L18.58 10.32L18.58 11.52L15.59 11.52L15.59 11.73L14.16 11.73L14.16 8.24L13.95 8.24L13.95 7.01L12.39 7.01L12.39 6.80L13.95 6.80ZM14.77 6.80L13.97 6.80L13.97 7.01L14.77 7.01L14.77 6.80ZM20.17 6.80L20.17 2.00L24.96 2.00L24.96 3.60L24.96 3.60Q24.96 3.63 24.92 3.63L24.92 3.63L22.08 3.63L22.08 5.74L24.63 5.74L24.63 5.76L24.63 5.76Q24.63 5.84 24.60 6.79L24.60 6.79L24.60 6.79Q24.58 6.79 24.58 6.80L24.58 6.80L24.70 6.80L24.70 7.29L22.49 7.29L22.49 9.29L21.90 9.29L21.90 9.49L22.49 9.49L22.49 10.10L24.99 10.10L24.99 10.32L24.79 10.32L24.79 11.52L21.80 11.52L21.80 11.73L20.38 11.73L20.38 8.24L20.17 8.24L20.17 7.01L18.61 7.01L18.61 6.80L20.17 6.80ZM20.98 6.80L20.18 6.80L20.18 7.01L20.98 7.01L20.98 6.80ZM25.73 10.60L25.73 2.00L27.64 2.00L27.64 3.83L27.64 3.83Q27.64 4.74 27.61 5.80L27.61 5.80L27.61 5.82L27.63 5.82L27.63 5.82Q27.86 5.37 28.92 3.51L28.92 3.51L28.92 3.51Q29.46 2.57 29.46 2.09L29.46 2.09L29.46 2.00L31.42 2.00L31.42 2.04L31.42 2.04Q31.42 2.98 30.66 4.09L30.66 4.09L29.50 5.78L30.64 8.21L31.67 8.21L31.67 8.50L30.51 8.50L30.51 8.52L30.51 8.52Q30.79 9.13 30.87 9.24L30.87 9.24L31.08 9.24L31.08 10.12L31.38 10.12L31.38 11.72L31.38 11.72Q30.88 11.73 30.64 11.73L30.64 11.73L30.17 11.73L30.17 11.73Q29.91 11.73 29.48 11.72L29.48 11.72L29.48 10.65L29.05 10.65L29.05 9.24L28.81 9.24L28.55 8.50L30.50 8.50L30.50 8.21L28.71 8.21L28.71 8.21Q28.71 8.18 28.40 7.23L28.40 7.23L28.38 7.23L28.38 7.23Q28.22 7.54 27.73 8.21L27.73 8.21L28.55 8.21L28.55 8.50L27.64 8.50L27.64 8.98L27.53 8.98L27.53 11.20L27.64 11.20L27.64 11.70L27.64 11.70Q27.64 11.73 27.61 11.73L27.61 11.73L25.76 11.73L25.76 11.73Q25.73 11.73 25.73 11.70L25.73 11.70L25.73 10.93L26.60 10.93L26.60 10.60L25.73 10.60ZM27.71 8.21L26.52 8.21L26.52 8.50L27.63 8.50L27.63 8.50Q27.63 8.45 27.71 8.21L27.71 8.21ZM35.99 1.93L35.99 1.93L37.84 1.93L37.84 1.93Q37.86 1.94 37.86 1.97L37.86 1.97L37.86 6.73L37.86 6.73Q37.86 6.76 37.84 6.76L37.84 6.76L37.62 6.76L37.62 11.70L37.62 11.70Q37.62 11.73 37.58 11.73L37.58 11.73L35.99 11.73L35.99 11.73Q35.96 11.73 35.96 11.70L35.96 11.70L35.96 6.64L35.46 6.64L35.46 6.64Q35.43 6.64 35.43 6.61L35.43 6.61L35.43 6.40L35.43 6.40Q35.44 6.36 35.46 6.36L35.46 6.36L35.96 6.36L35.96 1.97L35.96 1.97Q35.96 1.93 35.99 1.93ZM36.91 6.36L35.97 6.36L35.97 6.64L36.91 6.64L36.91 6.36ZM38.45 1.96L38.45 1.96L40.44 1.96L40.44 1.96Q40.48 1.96 41.08 3.53L41.08 3.53L41.08 3.53Q41.13 3.59 42.34 6.62L42.34 6.62L42.85 6.62L42.85 1.96L44.60 1.96L44.60 7.51L44.80 7.51L44.80 9.67L44.09 9.67L44.09 10.08L44.80 10.08L44.80 11.37L42.18 11.37L42.18 9.73L41.71 9.73L41.71 9.73Q40.77 7.44 40.44 6.56L40.44 6.56L40.44 4.92L40.20 4.92L40.20 9.93L39.80 9.93L39.80 11.66L38.17 11.66L38.17 7.94L38.46 7.94L38.46 7.92L38.46 7.92Q38.45 3.09 38.45 1.96ZM42.31 6.62L41.38 6.62L41.38 6.98L42.47 6.98L42.47 6.98Q42.34 6.62 42.31 6.62L42.31 6.62ZM43.66 6.62L42.87 6.62L42.87 6.98L42.49 6.98L42.49 6.98Q42.83 7.85 42.90 8.11L42.90 8.11L42.92 8.11L42.92 8.07L42.92 8.07Q42.87 7.18 42.87 6.98L42.87 6.98L43.66 6.98L43.66 6.62ZM42.18 11.73L42.18 11.55L45.34 11.55L45.34 11.73L42.18 11.73ZM49.30 1.93L49.30 1.93L49.30 1.93Q51.35 1.93 51.88 3.22L51.88 3.22L51.88 3.22Q52.04 3.53 52.04 3.63L52.04 3.63L51.17 3.63L51.17 3.89L52.10 3.89L52.10 3.88L52.10 3.88Q52.10 3.81 52.04 3.63L52.04 3.63L53.61 3.63L53.61 3.89L52.12 3.89L52.12 3.91L52.12 3.91Q52.23 4.46 52.28 5.09L52.28 5.09L52.28 5.09Q52.28 5.13 50.48 5.22L50.48 5.22L50.48 5.21L50.48 5.21Q50.48 3.58 49.37 3.58L49.37 3.58L49.16 3.58L49.16 3.58Q48.33 3.58 48.15 4.29L48.15 4.29L48.15 4.29Q48.00 4.89 48.00 5.87L48.00 5.87L48.00 7.21L47.98 7.40L47.35 7.40L47.35 7.71L47.98 7.71L47.98 10.08L50.61 10.08L50.61 7.62L52.13 7.62L52.13 10.08L51.29 10.08L51.29 11.60L49.53 11.60L49.53 11.73L48.17 11.73L48.17 11.60L46.78 11.60L46.78 10.84L47.70 10.84L47.70 10.51L46.31 10.51L46.31 9.39L45.73 9.39L45.73 8.00L46.04 8.00L46.04 8.00Q46.02 7.16 46.02 6.66L46.02 6.66L46.02 6.66Q46.02 4.42 46.23 3.84L46.23 3.84L46.23 3.84Q46.44 3.17 46.89 2.69L46.89 2.69L46.89 2.69Q47.70 1.93 49.30 1.93ZM52.64 6.33L52.64 1.94L54.53 1.94L54.53 7.12L53.64 7.12L53.64 7.39L54.53 7.39L54.53 8.36L54.53 8.36Q54.53 9.69 55.00 9.91L55.00 9.91L55.00 9.91Q55.24 10.06 55.60 10.06L55.60 10.06L56.18 10.06L56.18 8.34L56.69 8.34L56.69 1.94L58.56 1.94L58.56 7.96L57.89 7.96L57.89 8.39L58.56 8.39L58.56 8.39Q58.55 8.61 58.55 8.72L58.55 8.72L58.55 10.64L57.57 10.64L57.57 11.73L53.19 11.73L53.19 10.38L52.79 10.38L52.79 6.33L52.64 6.33ZM54.53 7.39L54.53 7.12L55.60 7.12L55.60 7.39L54.53 7.39ZM59.31 2.02L59.31 2.02L62.06 2.02L62.06 2.02Q63.91 2.02 64.41 2.95L64.41 2.95L64.41 2.95Q64.69 3.44 64.69 4.28L64.69 4.28L64.69 4.96L64.69 4.96Q64.69 5.91 63.86 6.50L63.86 6.50L63.86 6.50Q64.14 6.55 64.57 6.93L64.57 6.93L64.79 6.93L64.79 6.93Q65.19 7.36 65.32 7.75L65.32 7.75L65.32 7.75Q65.35 7.88 65.35 7.90L65.35 7.90L65.62 7.90L65.62 8.06L64.74 8.06L64.74 7.90L62.93 7.90L62.93 7.38L61.15 7.38L61.15 10.21L62.27 10.21L62.27 10.01L62.93 10.01L62.93 8.06L64.74 8.06L64.74 9.78L64.93 9.78L64.93 10.85L64.34 10.85L64.34 11.10L64.93 11.10L64.93 11.55L62.64 11.55L62.64 11.73L60.14 11.73L60.14 11.55L59.60 11.55L59.60 10.06L60.34 10.06L60.34 9.66L59.60 9.66L59.60 9.66Q59.58 8.52 59.58 7.96L59.58 7.96L59.58 7.25L58.95 7.25L58.95 7.07L59.58 7.07L59.58 6.69L59.28 6.69L59.28 2.06L59.28 2.06Q59.28 2.02 59.31 2.02ZM61.50 3.66L61.19 3.66L61.19 6.07L61.60 6.07L61.60 6.07Q62.33 6.07 62.56 5.82L62.56 5.82L62.56 5.82Q62.79 5.63 62.79 4.76L62.79 4.76L62.79 4.72L62.79 4.72Q62.79 3.99 62.56 3.83L62.56 3.83L62.56 3.83Q62.41 3.66 61.50 3.66L61.50 3.66ZM60.49 7.07L59.60 7.07L59.60 7.25L60.49 7.25L60.49 7.07ZM62.02 8.06L62.02 7.90L62.93 7.90L62.93 8.06L62.02 8.06ZM67.15 7.57L68.83 1.96L70.48 1.96L70.48 1.96Q70.51 2.10 72.08 7.29L72.08 7.29L72.38 7.29L72.38 10.51L71.70 10.51L71.70 10.76L72.38 10.76L72.38 11.45L70.56 11.45L70.56 9.47L68.34 9.47L68.34 10.32L67.43 10.32L67.43 11.73L65.78 11.73L65.78 11.63L65.91 11.63L65.91 10.32L66.59 10.32L66.59 7.57L67.15 7.57ZM69.64 4.71L69.60 4.71L69.60 4.72L69.60 4.72Q69.39 5.89 68.78 8.40L68.78 8.40L70.31 8.40L70.31 7.29L70.18 7.29L70.18 7.29Q69.64 4.92 69.64 4.71L69.64 4.71ZM65.30 7.57L65.30 7.28L66.59 7.28L66.59 7.57L65.30 7.57ZM70.56 11.73L70.56 11.57L72.75 11.57L72.75 11.73L70.56 11.73ZM72.19 3.57L72.19 1.93L77.93 1.93L77.93 3.57L76.03 3.57L76.03 10.34L76.89 10.34L76.89 10.54L76.03 10.54L76.03 11.29L75.52 11.29L75.52 11.55L75.88 11.55L75.88 11.73L74.14 11.73L74.14 11.73Q74.10 11.73 74.10 11.70L74.10 11.70L74.10 3.57L72.19 3.57ZM76.02 10.34L75.35 10.34L75.35 10.54L76.02 10.54L76.02 10.34ZM81.27 1.95L81.27 1.95L81.27 1.95Q83.37 1.95 84.03 3.42L84.03 3.42L84.03 3.42Q84.41 4.14 84.41 6.19L84.41 6.19L84.41 6.23L83.69 6.23L83.69 6.56L84.41 6.56L84.41 10.10L83.93 10.10L83.93 11.37L82.98 11.37L82.98 11.73L79.66 11.73L79.66 11.37L79.26 11.37L79.26 10.10L78.40 10.10L78.40 9.10L78.91 9.10L78.91 8.57L78.40 8.57L78.40 9.10L77.19 9.10L77.19 8.57L78.11 8.57L78.11 8.57Q78.09 7.38 78.09 6.74L78.09 6.74L78.09 5.91L78.09 5.91Q78.09 3.58 78.88 2.80L78.88 2.80L78.88 2.80Q79.60 1.95 81.27 1.95ZM80.07 5.32L80.07 5.32L80.09 5.32L80.07 5.35L80.07 6.23L79.34 6.23L79.34 6.56L80.07 6.56L80.07 6.56Q80.06 8.67 80.06 9.75L80.06 9.75L80.06 10.10L81.69 10.10L81.69 9.56L82.44 9.56L82.44 9.54L82.44 9.54Q82.44 8.54 82.43 6.75L82.43 6.75L82.43 6.75Q82.43 6.68 82.44 6.38L82.44 6.38L82.44 6.38Q82.44 4.45 82.22 4.01L82.22 4.01L82.22 4.01Q81.98 3.58 81.36 3.58L81.36 3.58L81.12 3.58L81.12 3.58Q80.38 3.58 80.20 4.24L80.20 4.24L80.20 4.24Q80.12 4.56 80.07 5.32ZM84.41 6.56L84.41 6.23L85.59 6.23L85.59 6.56L84.41 6.56ZM85.14 7.49L85.14 1.96L88.49 1.96L88.49 1.96Q90.17 1.96 90.67 3.14L90.67 3.14L90.67 3.14Q90.88 3.75 90.88 4.53L90.88 4.53L90.88 4.94L90.88 4.94Q90.88 6.36 90.25 7.11L90.25 7.11L89.54 7.11L89.54 7.47L90.63 7.47L90.63 9.81L89.99 9.81L89.99 10.17L90.96 10.17L90.96 11.55L88.92 11.55L88.92 9.34L88.14 9.34L88.14 7.92L86.77 7.92L86.77 10.34L87.06 10.34L87.06 11.73L85.18 11.73L85.18 11.73Q85.14 11.73 85.14 11.70L85.14 11.70L85.14 7.77L85.98 7.77L85.98 7.49L85.14 7.49ZM87.87 3.55L87.06 3.55L87.06 6.31L87.53 6.31L87.53 6.31Q88.57 6.31 88.74 6.11L88.74 6.11L88.74 6.11Q88.91 6.00 89.00 5.67L89.00 5.67L89.73 5.67L89.73 5.32L89.07 5.32L89.07 5.35L89.07 5.35Q89.02 5.67 88.99 5.67L88.99 5.67L88.05 5.67L88.05 5.32L89.04 5.32L89.04 5.32Q89.07 5.32 89.07 5.29L89.07 5.29L89.07 5.29Q89.09 4.87 89.09 4.81L89.09 4.81L89.09 4.81Q89.09 3.90 88.77 3.69L88.77 3.69L88.77 3.69Q88.53 3.55 87.87 3.55L87.87 3.55ZM94.53 1.96L94.53 1.96L94.53 1.96Q96.16 1.96 96.71 3.01L96.71 3.01L96.71 3.01Q97.10 3.80 97.10 4.56L97.10 4.56L97.08 4.56L97.08 4.56Q95.97 4.66 95.56 4.66L95.56 4.66L95.56 4.66Q95.56 4.12 95.22 3.75L95.22 3.75L95.22 3.75Q94.91 3.57 94.64 3.57L94.64 3.57L94.37 3.57L94.37 3.57Q93.67 3.57 93.52 4.11L93.52 4.11L93.52 4.11Q93.49 4.27 93.49 4.35L93.49 4.35L93.49 4.50L93.49 4.50Q93.49 5.26 94.29 5.61L94.29 5.61L94.29 5.61Q94.36 5.67 95.42 6.12L95.42 6.12L95.42 6.12Q95.98 6.38 96.46 6.76L96.46 6.76L96.46 6.77L94.74 6.77L94.74 6.97L97.00 6.97L97.00 7.24L97.29 7.24L97.29 10.21L96.73 10.21L96.73 11.73L92.38 11.73L92.38 10.21L91.36 10.21L91.36 9.18L91.94 9.18L91.94 8.83L91.36 8.83L91.36 8.59L93.34 8.59L93.34 10.21L95.38 10.21L95.38 7.77L93.86 7.77L93.86 6.97L91.96 6.97L91.96 6.77L92.88 6.77L92.88 6.76L92.88 6.76Q91.68 5.96 91.68 4.50L91.68 4.50L91.68 4.37L91.68 4.37Q91.68 3.14 92.43 2.51L92.43 2.51L92.43 2.51Q93.11 1.96 94.53 1.96ZM97.00 6.97L97.00 6.77L97.69 6.77L97.69 6.97L97.00 6.97ZM90.70 9.18L90.70 8.83L91.36 8.83L91.36 9.18L90.70 9.18Z"></path></g><!----><g data-v-423bf9ae="" id="f0a7fb35-0a32-496d-9a82-328a78d03a3b" transform="matrix(1.5299616318978573,0,0,1.5299616318978573,223.50191840510712,-30.91032005927518)" stroke="none" fill="#ffffff"><path d="M43.348 20.608v-.021H27.711v12.945h15.637v-5.843H95v-7.081zM43.195 40.604H27.711v12.947H95V46.47H43.348v-5.85H95v-7.081H43.195zM5 72.332h90v7.08H5zM5 59.4h90v7.082H5zM20.637 20.587H5V33.532h15.637zM20.637 40.604H5v12.947h15.637z"></path></g><!----></svg>