<svg data-v-423bf9ae="" xmlns="http://www.w3.org/2000/svg" viewBox="0 0 730.4984815913691 163" class="iconAbove"><!----><defs data-v-423bf9ae=""><linearGradient data-v-423bf9ae="" gradientTransform="rotate(25)" id="28e415df-ab23-4473-8cba-a07e8d184da3" x1="0%" y1="0%" x2="100%" y2="0%"><stop data-v-423bf9ae="" offset="0%" style="stop-color: rgb(24, 27, 128); stop-opacity: 1;"></stop><stop data-v-423bf9ae="" offset="100%" style="stop-color: rgb(24, 30, 217); stop-opacity: 1;"></stop></linearGradient></defs><!----><g data-v-423bf9ae="" id="c42ef8bd-2743-4779-b51f-b0c33c916863" fill="#ffffff" transform="matrix(6.1037640351658435,0,0,6.1037640351658435,4.333663890090577,91.4028453668988)"><path d="M0.85 6.77L0.85 1.94L5.68 1.94L5.68 3.54L5.68 3.54Q5.68 3.58 5.65 3.58L5.65 3.58L2.78 3.58L2.78 5.70L5.35 5.70L5.35 5.71L5.35 5.71Q5.35 5.81 5.32 6.75L5.32 6.75L5.32 6.75Q5.30 6.75 5.30 6.77L5.30 6.77L5.42 6.77L5.42 7.27L3.19 7.27L3.19 9.28L2.60 9.28L2.60 9.47L3.19 9.47L3.19 10.08L5.71 10.08L5.71 10.32L5.52 10.32L5.52 11.52L2.50 11.52L2.50 11.73L1.07 11.73L1.07 8.22L0.85 8.22L0.85 6.99L-0.71 6.99L-0.71 6.77L0.85 6.77ZM1.67 6.77L0.87 6.77L0.87 6.99L1.67 6.99L1.67 6.77ZM3.34 10.04L3.34 9.59L3.46 9.59L3.46 9.75L3.47 9.75L3.47 9.75Q3.47 9.71 3.62 9.59L3.62 9.59L3.74 9.59L3.58 9.77L3.75 10.04L3.64 10.04L3.64 10.04Q3.51 9.85 3.49 9.85L3.49 9.85L3.49 9.85Q3.46 9.86 3.46 9.88L3.46 9.88L3.46 10.04L3.34 10.04ZM3.92 10.04L3.92 9.59L4.15 9.59L4.15 9.59Q4.26 9.59 4.30 9.72L4.30 9.72L4.30 9.72Q4.30 9.74 4.23 9.84L4.23 9.84L4.23 9.84Q4.28 9.84 4.30 10.04L4.30 10.04L4.22 10.04L4.22 10.04Q4.18 10.04 4.16 9.87L4.16 9.87L4.03 9.87L4.03 10.04L3.92 10.04ZM4.66 9.59L4.66 9.59L4.72 9.59L4.72 9.59Q4.87 9.59 4.91 9.79L4.91 9.79L4.91 9.85L4.91 9.85Q4.91 9.91 4.86 9.97L4.86 9.97L4.86 9.99L4.86 9.99Q4.91 9.99 4.91 10.01L4.91 10.01L4.91 10.01Q4.91 10.04 4.86 10.07L4.86 10.07L4.86 10.07Q4.83 10.07 4.81 10.01L4.81 10.01L4.72 10.04L4.66 10.04L4.66 10.04Q4.50 10.04 4.48 9.79L4.48 9.79L4.48 9.79Q4.53 9.59 4.66 9.59ZM4.59 9.79L4.59 9.79L4.59 9.84L4.59 9.84Q4.59 9.95 4.71 9.95L4.71 9.95L4.72 9.95L4.72 9.93L4.70 9.93L4.70 9.92L4.70 9.92Q4.70 9.89 4.74 9.87L4.74 9.87L4.79 9.90L4.79 9.90Q4.79 9.89 4.81 9.80L4.81 9.80L4.81 9.80Q4.80 9.67 4.68 9.67L4.68 9.67L4.68 9.67Q4.59 9.69 4.59 9.79ZM4.15 9.69L4.03 9.69L4.03 9.79L4.15 9.79L4.15 9.79Q4.18 9.79 4.18 9.75L4.18 9.75L4.18 9.72L4.18 9.72Q4.18 9.69 4.15 9.69L4.15 9.69ZM5.62 10.51L5.62 10.41L5.71 10.41L5.71 10.43L5.71 10.43Q5.71 10.73 5.67 10.73L5.67 10.73L5.67 10.73Q5.62 10.73 5.62 10.51L5.62 10.51ZM5.62 10.84L5.62 10.74L5.71 10.74L5.71 10.84L5.62 10.84ZM6.06 6.33L6.06 1.94L7.95 1.94L7.95 7.12L7.06 7.12L7.06 7.39L7.95 7.39L7.95 8.36L7.95 8.36Q7.95 9.69 8.42 9.91L8.42 9.91L8.42 9.91Q8.66 10.06 9.02 10.06L9.02 10.06L9.60 10.06L9.60 8.34L10.11 8.34L10.11 1.94L11.98 1.94L11.98 7.96L11.31 7.96L11.31 8.39L11.98 8.39L11.98 8.39Q11.97 8.61 11.97 8.72L11.97 8.72L11.97 10.64L10.99 10.64L10.99 11.73L6.61 11.73L6.61 10.38L6.21 10.38L6.21 6.33L6.06 6.33ZM7.95 7.39L7.95 7.12L9.02 7.12L9.02 7.39L7.95 7.39ZM12.37 7.49L12.37 1.96L15.72 1.96L15.72 1.96Q17.40 1.96 17.89 3.14L17.89 3.14L17.89 3.14Q18.10 3.75 18.10 4.53L18.10 4.53L18.10 4.94L18.10 4.94Q18.10 6.36 17.48 7.11L17.48 7.11L16.77 7.11L16.77 7.47L17.86 7.47L17.86 9.81L17.21 9.81L17.21 10.17L18.18 10.17L18.18 11.55L16.15 11.55L16.15 9.34L15.36 9.34L15.36 7.92L13.99 7.92L13.99 10.34L14.29 10.34L14.29 11.73L12.40 11.73L12.40 11.73Q12.37 11.73 12.37 11.70L12.37 11.70L12.37 7.77L13.21 7.77L13.21 7.49L12.37 7.49ZM15.09 3.55L14.29 3.55L14.29 6.31L14.75 6.31L14.75 6.31Q15.80 6.31 15.96 6.11L15.96 6.11L15.96 6.11Q16.13 6.00 16.23 5.67L16.23 5.67L16.95 5.67L16.95 5.32L16.30 5.32L16.30 5.35L16.30 5.35Q16.24 5.67 16.21 5.67L16.21 5.67L15.28 5.67L15.28 5.32L16.26 5.32L16.26 5.32Q16.30 5.32 16.30 5.29L16.30 5.29L16.30 5.29Q16.31 4.87 16.31 4.81L16.31 4.81L16.31 4.81Q16.31 3.90 16.00 3.69L16.00 3.69L16.00 3.69Q15.75 3.55 15.09 3.55L15.09 3.55ZM22.19 1.95L22.19 1.95L22.19 1.95Q24.29 1.95 24.96 3.42L24.96 3.42L24.96 3.42Q25.33 4.14 25.33 6.19L25.33 6.19L25.33 6.23L24.61 6.23L24.61 6.56L25.33 6.56L25.33 10.10L24.86 10.10L24.86 11.37L23.91 11.37L23.91 11.73L20.58 11.73L20.58 11.37L20.18 11.37L20.18 10.10L19.33 10.10L19.33 9.10L19.83 9.10L19.83 8.57L19.33 8.57L19.33 9.10L18.12 9.10L18.12 8.57L19.03 8.57L19.03 8.57Q19.02 7.38 19.02 6.74L19.02 6.74L19.02 5.91L19.02 5.91Q19.02 3.58 19.80 2.80L19.80 2.80L19.80 2.80Q20.52 1.95 22.19 1.95ZM20.99 5.32L20.99 5.32L21.01 5.32L20.99 5.35L20.99 6.23L20.26 6.23L20.26 6.56L20.99 6.56L20.99 6.56Q20.98 8.67 20.98 9.75L20.98 9.75L20.98 10.10L22.61 10.10L22.61 9.56L23.37 9.56L23.37 9.54L23.37 9.54Q23.37 8.54 23.35 6.75L23.35 6.75L23.35 6.75Q23.35 6.68 23.37 6.38L23.37 6.38L23.37 6.38Q23.37 4.45 23.14 4.01L23.14 4.01L23.14 4.01Q22.91 3.58 22.29 3.58L22.29 3.58L22.05 3.58L22.05 3.58Q21.30 3.58 21.12 4.24L21.12 4.24L21.12 4.24Q21.04 4.56 20.99 5.32ZM25.33 6.56L25.33 6.23L26.51 6.23L26.51 6.56L25.33 6.56ZM26.07 7.25L26.07 1.90L28.60 1.90L28.60 1.90Q30.82 1.90 31.45 3.05L31.45 3.05L31.45 3.05Q31.81 3.77 31.81 4.89L31.81 4.89L31.81 4.89Q31.79 5.10 31.79 5.30L31.79 5.30L33.20 5.30L33.20 5.78L31.74 5.78L31.74 5.76L31.74 5.76Q31.77 5.33 31.77 5.30L31.77 5.30L30.95 5.30L30.95 5.78L31.74 5.78L31.74 7.44L30.12 7.44L30.12 8.02L30.11 8.02L30.11 8.02Q28.23 8.03 27.98 8.03L27.98 8.03L27.98 8.90L27.64 8.90L27.64 10.44L27.83 10.44L27.83 11.73L26.29 11.73L26.29 11.12L26.08 11.12L26.08 10.62L26.08 10.62Q26.08 9.74 26.07 7.76L26.07 7.76L27.00 7.76L27.00 7.25L26.07 7.25ZM28.81 3.57L27.98 3.57L27.98 6.36L28.57 6.36L28.57 5.96L29.73 5.96L29.73 5.96Q29.96 5.75 29.96 4.76L29.96 4.76L29.96 4.76Q29.96 3.83 29.53 3.68L29.53 3.68L29.53 3.68Q29.37 3.57 28.81 3.57L28.81 3.57ZM33.62 6.80L33.62 2.00L38.41 2.00L38.41 3.60L38.41 3.60Q38.41 3.63 38.38 3.63L38.38 3.63L35.53 3.63L35.53 5.74L38.08 5.74L38.08 5.76L38.08 5.76Q38.08 5.84 38.06 6.79L38.06 6.79L38.06 6.79Q38.04 6.79 38.04 6.80L38.04 6.80L38.15 6.80L38.15 7.29L35.94 7.29L35.94 9.29L35.35 9.29L35.35 9.49L35.94 9.49L35.94 10.10L38.45 10.10L38.45 10.32L38.25 10.32L38.25 11.52L35.25 11.52L35.25 11.73L33.83 11.73L33.83 8.24L33.62 8.24L33.62 7.01L32.06 7.01L32.06 6.80L33.62 6.80ZM34.43 6.80L33.63 6.80L33.63 7.01L34.43 7.01L34.43 6.80ZM40.58 7.57L42.27 1.96L43.91 1.96L43.91 1.96Q43.95 2.10 45.51 7.29L45.51 7.29L45.81 7.29L45.81 10.51L45.14 10.51L45.14 10.76L45.81 10.76L45.81 11.45L44.00 11.45L44.00 9.47L41.77 9.47L41.77 10.32L40.87 10.32L40.87 11.73L39.22 11.73L39.22 11.63L39.35 11.63L39.35 10.32L40.02 10.32L40.02 7.57L40.58 7.57ZM43.07 4.71L43.04 4.71L43.04 4.72L43.04 4.72Q42.83 5.89 42.22 8.40L42.22 8.40L43.75 8.40L43.75 7.29L43.62 7.29L43.62 7.29Q43.07 4.92 43.07 4.71L43.07 4.71ZM38.74 7.57L38.74 7.28L40.02 7.28L40.02 7.57L38.74 7.57ZM44.00 11.73L44.00 11.57L46.19 11.57L46.19 11.73L44.00 11.73ZM46.19 1.96L46.19 1.96L48.19 1.96L48.19 1.96Q48.23 1.96 48.83 3.53L48.83 3.53L48.83 3.53Q48.88 3.59 50.09 6.62L50.09 6.62L50.60 6.62L50.60 1.96L52.34 1.96L52.34 7.51L52.54 7.51L52.54 9.67L51.84 9.67L51.84 10.08L52.54 10.08L52.54 11.37L49.92 11.37L49.92 9.73L49.46 9.73L49.46 9.73Q48.51 7.44 48.19 6.56L48.19 6.56L48.19 4.92L47.94 4.92L47.94 9.93L47.54 9.93L47.54 11.66L45.91 11.66L45.91 7.94L46.20 7.94L46.20 7.92L46.20 7.92Q46.19 3.09 46.19 1.96ZM50.05 6.62L49.13 6.62L49.13 6.98L50.22 6.98L50.22 6.98Q50.09 6.62 50.05 6.62L50.05 6.62ZM51.41 6.62L50.61 6.62L50.61 6.98L50.23 6.98L50.23 6.98Q50.58 7.85 50.65 8.11L50.65 8.11L50.66 8.11L50.66 8.07L50.66 8.07Q50.61 7.18 50.61 6.98L50.61 6.98L51.41 6.98L51.41 6.62ZM49.92 11.73L49.92 11.55L53.09 11.55L53.09 11.73L49.92 11.73ZM57.26 1.93L57.26 1.93L59.11 1.93L59.11 1.93Q59.14 1.94 59.14 1.97L59.14 1.97L59.14 6.73L59.14 6.73Q59.14 6.76 59.11 6.76L59.11 6.76L58.89 6.76L58.89 11.70L58.89 11.70Q58.89 11.73 58.86 11.73L58.86 11.73L57.26 11.73L57.26 11.73Q57.23 11.73 57.23 11.70L57.23 11.70L57.23 6.64L56.74 6.64L56.74 6.64Q56.70 6.64 56.70 6.61L56.70 6.61L56.70 6.40L56.70 6.40Q56.71 6.36 56.74 6.36L56.74 6.36L57.23 6.36L57.23 1.97L57.23 1.97Q57.24 1.93 57.26 1.93ZM58.19 6.36L57.24 6.36L57.24 6.64L58.19 6.64L58.19 6.36ZM59.72 1.96L59.72 1.96L61.71 1.96L61.71 1.96Q61.76 1.96 62.36 3.53L62.36 3.53L62.36 3.53Q62.41 3.59 63.62 6.62L63.62 6.62L64.13 6.62L64.13 1.96L65.87 1.96L65.87 7.51L66.07 7.51L66.07 9.67L65.37 9.67L65.37 10.08L66.07 10.08L66.07 11.37L63.45 11.37L63.45 9.73L62.99 9.73L62.99 9.73Q62.04 7.44 61.71 6.56L61.71 6.56L61.71 4.92L61.47 4.92L61.47 9.93L61.07 9.93L61.07 11.66L59.44 11.66L59.44 7.94L59.73 7.94L59.73 7.92L59.73 7.92Q59.72 3.09 59.72 1.96ZM63.58 6.62L62.66 6.62L62.66 6.98L63.75 6.98L63.75 6.98Q63.62 6.62 63.58 6.62L63.58 6.62ZM64.93 6.62L64.14 6.62L64.14 6.98L63.76 6.98L63.76 6.98Q64.11 7.85 64.18 8.11L64.18 8.11L64.19 8.11L64.19 8.07L64.19 8.07Q64.14 7.18 64.14 6.98L64.14 6.98L64.93 6.98L64.93 6.62ZM63.45 11.73L63.45 11.55L66.62 11.55L66.62 11.73L63.45 11.73ZM70.57 1.93L70.57 1.93L70.57 1.93Q72.63 1.93 73.15 3.22L73.15 3.22L73.15 3.22Q73.31 3.53 73.31 3.63L73.31 3.63L72.45 3.63L72.45 3.89L73.38 3.89L73.38 3.88L73.38 3.88Q73.38 3.81 73.31 3.63L73.31 3.63L74.89 3.63L74.89 3.89L73.39 3.89L73.39 3.91L73.39 3.91Q73.51 4.46 73.55 5.09L73.55 5.09L73.55 5.09Q73.55 5.13 71.76 5.22L71.76 5.22L71.76 5.21L71.76 5.21Q71.76 3.58 70.64 3.58L70.64 3.58L70.44 3.58L70.44 3.58Q69.60 3.58 69.42 4.29L69.42 4.29L69.42 4.29Q69.28 4.89 69.28 5.87L69.28 5.87L69.28 7.21L69.25 7.40L68.63 7.40L68.63 7.71L69.25 7.71L69.25 10.08L71.89 10.08L71.89 7.62L73.40 7.62L73.40 10.08L72.56 10.08L72.56 11.60L70.81 11.60L70.81 11.73L69.44 11.73L69.44 11.60L68.05 11.60L68.05 10.84L68.97 10.84L68.97 10.51L67.59 10.51L67.59 9.39L67.00 9.39L67.00 8.00L67.31 8.00L67.31 8.00Q67.29 7.16 67.29 6.66L67.29 6.66L67.29 6.66Q67.29 4.42 67.50 3.84L67.50 3.84L67.50 3.84Q67.72 3.17 68.17 2.69L68.17 2.69L68.17 2.69Q68.97 1.93 70.57 1.93ZM73.92 6.33L73.92 1.94L75.80 1.94L75.80 7.12L74.92 7.12L74.92 7.39L75.80 7.39L75.80 8.36L75.80 8.36Q75.80 9.69 76.28 9.91L76.28 9.91L76.28 9.91Q76.51 10.06 76.87 10.06L76.87 10.06L77.45 10.06L77.45 8.34L77.96 8.34L77.96 1.94L79.84 1.94L79.84 7.96L79.16 7.96L79.16 8.39L79.84 8.39L79.84 8.39Q79.82 8.61 79.82 8.72L79.82 8.72L79.82 10.64L78.84 10.64L78.84 11.73L74.46 11.73L74.46 10.38L74.06 10.38L74.06 6.33L73.92 6.33ZM75.80 7.39L75.80 7.12L76.87 7.12L76.87 7.39L75.80 7.39ZM80.58 2.02L80.58 2.02L83.34 2.02L83.34 2.02Q85.18 2.02 85.68 2.95L85.68 2.95L85.68 2.95Q85.96 3.44 85.96 4.28L85.96 4.28L85.96 4.96L85.96 4.96Q85.96 5.91 85.13 6.50L85.13 6.50L85.13 6.50Q85.42 6.55 85.85 6.93L85.85 6.93L86.06 6.93L86.06 6.93Q86.47 7.36 86.59 7.75L86.59 7.75L86.59 7.75Q86.63 7.88 86.63 7.90L86.63 7.90L86.89 7.90L86.89 8.06L86.01 8.06L86.01 7.90L84.21 7.90L84.21 7.38L82.43 7.38L82.43 10.21L83.54 10.21L83.54 10.01L84.21 10.01L84.21 8.06L86.01 8.06L86.01 9.78L86.21 9.78L86.21 10.85L85.61 10.85L85.61 11.10L86.21 11.10L86.21 11.55L83.92 11.55L83.92 11.73L81.42 11.73L81.42 11.55L80.87 11.55L80.87 10.06L81.61 10.06L81.61 9.66L80.87 9.66L80.87 9.66Q80.85 8.52 80.85 7.96L80.85 7.96L80.85 7.25L80.22 7.25L80.22 7.07L80.85 7.07L80.85 6.69L80.55 6.69L80.55 2.06L80.55 2.06Q80.55 2.02 80.58 2.02ZM82.78 3.66L82.46 3.66L82.46 6.07L82.87 6.07L82.87 6.07Q83.60 6.07 83.84 5.82L83.84 5.82L83.84 5.82Q84.07 5.63 84.07 4.76L84.07 4.76L84.07 4.72L84.07 4.72Q84.07 3.99 83.84 3.83L83.84 3.83L83.84 3.83Q83.69 3.66 82.78 3.66L82.78 3.66ZM81.76 7.07L80.87 7.07L80.87 7.25L81.76 7.25L81.76 7.07ZM83.29 8.06L83.29 7.90L84.21 7.90L84.21 8.06L83.29 8.06ZM88.42 7.57L90.10 1.96L91.75 1.96L91.75 1.96Q91.79 2.10 93.35 7.29L93.35 7.29L93.65 7.29L93.65 10.51L92.98 10.51L92.98 10.76L93.65 10.76L93.65 11.45L91.83 11.45L91.83 9.47L89.61 9.47L89.61 10.32L88.70 10.32L88.70 11.73L87.06 11.73L87.06 11.63L87.19 11.63L87.19 10.32L87.86 10.32L87.86 7.57L88.42 7.57ZM90.91 4.71L90.88 4.71L90.88 4.72L90.88 4.72Q90.67 5.89 90.06 8.40L90.06 8.40L91.59 8.40L91.59 7.29L91.46 7.29L91.46 7.29Q90.91 4.92 90.91 4.71L90.91 4.71ZM86.58 7.57L86.58 7.28L87.86 7.28L87.86 7.57L86.58 7.57ZM91.83 11.73L91.83 11.57L94.03 11.57L94.03 11.73L91.83 11.73ZM93.46 3.57L93.46 1.93L99.20 1.93L99.20 3.57L97.30 3.57L97.30 10.34L98.16 10.34L98.16 10.54L97.30 10.54L97.30 11.29L96.79 11.29L96.79 11.55L97.15 11.55L97.15 11.73L95.41 11.73L95.41 11.73Q95.38 11.73 95.38 11.70L95.38 11.70L95.38 3.57L93.46 3.57ZM97.29 10.34L96.63 10.34L96.63 10.54L97.29 10.54L97.29 10.34ZM102.54 1.95L102.54 1.95L102.54 1.95Q104.64 1.95 105.31 3.42L105.31 3.42L105.31 3.42Q105.68 4.14 105.68 6.19L105.68 6.19L105.68 6.23L104.96 6.23L104.96 6.56L105.68 6.56L105.68 10.10L105.21 10.10L105.21 11.37L104.25 11.37L104.25 11.73L100.93 11.73L100.93 11.37L100.53 11.37L100.53 10.10L99.67 10.10L99.67 9.10L100.18 9.10L100.18 8.57L99.67 8.57L99.67 9.10L98.46 9.10L98.46 8.57L99.38 8.57L99.38 8.57Q99.37 7.38 99.37 6.74L99.37 6.74L99.37 5.91L99.37 5.91Q99.37 3.58 100.15 2.80L100.15 2.80L100.15 2.80Q100.87 1.95 102.54 1.95ZM101.34 5.32L101.34 5.32L101.36 5.32L101.34 5.35L101.34 6.23L100.61 6.23L100.61 6.56L101.34 6.56L101.34 6.56Q101.33 8.67 101.33 9.75L101.33 9.75L101.33 10.10L102.96 10.10L102.96 9.56L103.71 9.56L103.71 9.54L103.71 9.54Q103.71 8.54 103.70 6.75L103.70 6.75L103.70 6.75Q103.70 6.68 103.71 6.38L103.71 6.38L103.71 6.38Q103.71 4.45 103.49 4.01L103.49 4.01L103.49 4.01Q103.26 3.58 102.63 3.58L102.63 3.58L102.40 3.58L102.40 3.58Q101.65 3.58 101.47 4.24L101.47 4.24L101.47 4.24Q101.39 4.56 101.34 5.32ZM105.68 6.56L105.68 6.23L106.86 6.23L106.86 6.56L105.68 6.56ZM106.42 7.49L106.42 1.96L109.76 1.96L109.76 1.96Q111.45 1.96 111.94 3.14L111.94 3.14L111.94 3.14Q112.15 3.75 112.15 4.53L112.15 4.53L112.15 4.94L112.15 4.94Q112.15 6.36 111.53 7.11L111.53 7.11L110.82 7.11L110.82 7.47L111.90 7.47L111.90 9.81L111.26 9.81L111.26 10.17L112.23 10.17L112.23 11.55L110.20 11.55L110.20 9.34L109.41 9.34L109.41 7.92L108.04 7.92L108.04 10.34L108.34 10.34L108.34 11.73L106.45 11.73L106.45 11.73Q106.42 11.73 106.42 11.70L106.42 11.70L106.42 7.77L107.26 7.77L107.26 7.49L106.42 7.49ZM109.14 3.55L108.34 3.55L108.34 6.31L108.80 6.31L108.80 6.31Q109.85 6.31 110.01 6.11L110.01 6.11L110.01 6.11Q110.18 6.00 110.28 5.67L110.28 5.67L111.00 5.67L111.00 5.32L110.35 5.32L110.35 5.35L110.35 5.35Q110.29 5.67 110.26 5.67L110.26 5.67L109.33 5.67L109.33 5.32L110.31 5.32L110.31 5.32Q110.35 5.32 110.35 5.29L110.35 5.29L110.35 5.29Q110.36 4.87 110.36 4.81L110.36 4.81L110.36 4.81Q110.36 3.90 110.04 3.69L110.04 3.69L110.04 3.69Q109.80 3.55 109.14 3.55L109.14 3.55ZM115.81 1.96L115.81 1.96L115.81 1.96Q117.43 1.96 117.99 3.01L117.99 3.01L117.99 3.01Q118.37 3.80 118.37 4.56L118.37 4.56L118.36 4.56L118.36 4.56Q117.24 4.66 116.83 4.66L116.83 4.66L116.83 4.66Q116.83 4.12 116.50 3.75L116.50 3.75L116.50 3.75Q116.18 3.57 115.92 3.57L115.92 3.57L115.64 3.57L115.64 3.57Q114.95 3.57 114.80 4.11L114.80 4.11L114.80 4.11Q114.76 4.27 114.76 4.35L114.76 4.35L114.76 4.50L114.76 4.50Q114.76 5.26 115.57 5.61L115.57 5.61L115.57 5.61Q115.64 5.67 116.69 6.12L116.69 6.12L116.69 6.12Q117.25 6.38 117.73 6.76L117.73 6.76L117.73 6.77L116.01 6.77L116.01 6.97L118.28 6.97L118.28 7.24L118.56 7.24L118.56 10.21L118.00 10.21L118.00 11.73L113.65 11.73L113.65 10.21L112.63 10.21L112.63 9.18L113.21 9.18L113.21 8.83L112.63 8.83L112.63 8.59L114.62 8.59L114.62 10.21L116.66 10.21L116.66 7.77L115.13 7.77L115.13 6.97L113.24 6.97L113.24 6.77L114.15 6.77L114.15 6.76L114.15 6.76Q112.95 5.96 112.95 4.50L112.95 4.50L112.95 4.37L112.95 4.37Q112.95 3.14 113.70 2.51L113.70 2.51L113.70 2.51Q114.39 1.96 115.81 1.96ZM118.28 6.97L118.28 6.77L118.97 6.77L118.97 6.97L118.28 6.97ZM111.97 9.18L111.97 8.83L112.63 8.83L112.63 9.18L111.97 9.18Z"></path></g><!----><g data-v-423bf9ae="" id="f400459e-5129-4d16-9650-02b85705fd4d" transform="matrix(9,0,0,9,294,0)" stroke="none" fill="#ffffff"><path d="M0 0v10h16V0H0zm8 2.262l-.391.219.074-.464-.317-.328.439-.068L8 1.2l.196.421.438.068-.317.328.075.464L8 2.262zm1.37.367l-.45-.007.297-.364-.11-.442.413.16.38-.267-.04.463.345.278-.439.125-.167.44-.23-.386zm1.002 1.002l-.386-.23.439-.167.126-.439.277.346.464-.041-.268.38.16.414-.442-.11-.364.296-.006-.449zM10.738 5l-.218-.392.463.075.328-.317.068.438.422.196-.422.196-.068.438-.328-.317-.463.075.218-.392zm-.366 1.369l.006-.449.364.297.443-.11-.16.413.267.38-.464-.041-.277.346-.126-.44-.439-.166.386-.23zM9.369 7.371l.23-.385.167.439.44.125-.347.278.042.463-.38-.267-.414.16.11-.442-.296-.364.448-.007zM8 7.738l.392-.219-.075.464.317.328-.438.068L8 8.8l-.195-.421-.439-.068.317-.328-.074-.464.391.219zm-1.369-.367l.45.007-.297.364.11.442-.413-.16-.38.267.04-.463-.345-.278.439-.125.167-.44.23.386zM5.63 6.37l.386.23-.44.167-.125.439-.278-.346-.463.041.267-.38-.16-.414.443.11.364-.296.006.449zM5.262 5l.22.392-.464-.075-.329.317-.067-.438L4.2 5l.422-.196.067-.438.329.317.463-.075L5.262 5zm.367-1.369l-.006.449-.364-.297-.443.11.16-.413-.267-.38.463.041.278-.346.126.44.439.166-.386.23zm1.002-1.002l-.23.385-.166-.439-.44-.125.346-.278-.04-.463.38.267.413-.16-.11.442.296.364-.449.007z"></path></g><!----></svg>