<svg width="40" height="41" viewBox="0 0 40 41" fill="none" xmlns="http://www.w3.org/2000/svg">
<path d="M30.0279 18.1928C28.8996 19.328 28.3357 20.9069 28.4897 22.5001L28.4632 22.4736C28.6215 24.3485 27.9452 26.1977 26.6148 27.5281C25.2844 28.8586 23.4351 29.5348 21.5603 29.3766L21.5868 29.403C19.3168 29.1918 17.158 30.4265 16.1893 32.4903C15.2205 34.554 15.6498 37.0036 17.2626 38.6149C18.8754 40.2263 21.3254 40.6533 23.3883 39.6827C25.4511 38.7121 26.6839 36.5523 26.4706 34.2825L26.4985 34.3089C26.3403 32.4341 27.0165 30.5848 28.347 29.2544C29.6774 27.924 31.5266 27.2477 33.4015 27.406L33.3735 27.3795C35.8683 27.6039 38.1897 26.0827 38.9799 23.7057C39.7701 21.3288 38.8215 18.7205 36.689 17.4065C34.5564 16.0926 31.8001 16.4181 30.0323 18.1928H30.0279Z" fill="#5454D4"/>
<path d="M19.1793 25.9353L19.1514 25.9088C20.7455 26.0695 22.3276 25.5057 23.461 24.3732C24.5944 23.2407 25.1593 21.659 24.9999 20.0647L25.0278 20.0912C24.8696 18.2163 25.5458 16.3671 26.8763 15.0367C28.2067 13.7062 30.0559 13.03 31.9308 13.1882L31.9028 13.1618C34.173 13.375 36.3331 12.1416 37.3033 10.0781C38.2735 8.01466 37.8455 5.56437 36.2332 3.95204C34.6208 2.33972 32.1705 1.91168 30.1071 2.8819C28.0436 3.85212 26.8102 6.01219 27.0234 8.28238L26.9969 8.25444C27.1557 10.1294 26.4796 11.979 25.1491 13.3095C23.8185 14.64 21.969 15.3161 20.094 15.1574L20.1205 15.1853C18.5263 15.0247 16.9442 15.5884 15.8108 16.7209C14.6774 17.8535 14.1125 19.4351 14.2719 21.0294L14.2455 21.0029C14.4032 22.8776 13.7268 24.7266 12.3965 26.0569C11.0662 27.3872 9.21727 28.0636 7.34257 27.9059L7.36904 27.9324C5.09886 27.7192 2.93879 28.9526 1.96857 31.016C0.99835 33.0795 1.42638 35.5298 3.03871 37.1421C4.65104 38.7544 7.10133 39.1825 9.16479 38.2122C11.2282 37.242 12.4616 35.082 12.2484 32.8118L12.2764 32.8382C12.1181 30.9634 12.7944 29.1142 14.1248 27.7837C15.4552 26.4533 17.3045 25.777 19.1793 25.9353Z" fill="#FF7143"/>
<path d="M9.32353 22.9837C10.452 21.8487 11.0155 20.2694 10.8603 18.6764L10.8882 18.7028C10.7298 16.8275 11.4065 14.9777 12.7376 13.6471C14.0687 12.3166 15.9188 11.6407 17.7941 11.7999L17.7662 11.7734C20.0356 11.986 22.1946 10.7528 23.1642 8.68997C24.1339 6.62717 23.7058 4.17784 22.0941 2.56611C20.4824 0.954379 18.0331 0.526374 15.9703 1.496C13.9074 2.46563 12.6742 4.62466 12.8868 6.89405L12.8603 6.86758C13.0186 8.74241 12.3423 10.5916 11.0119 11.9221C9.68144 13.2525 7.83218 13.9288 5.95735 13.7705L5.98382 13.797C3.48912 13.5732 1.16818 15.0948 0.378454 17.4718C-0.411274 19.8487 0.537647 22.4567 2.67022 23.7704C4.8028 25.084 7.55886 24.7583 9.32647 22.9837H9.32353Z" fill="#5454D4"/>
</svg>
